<?xml version="1.0" encoding="utf-8"?>
<!-- Generator: Adobe Illustrator 23.0.6, SVG Export Plug-In . SVG Version: 6.00 Build 0)  -->
<svg version="1.1" id="Camada_1" xmlns="http://www.w3.org/2000/svg" xmlns:xlink="http://www.w3.org/1999/xlink" x="0px" y="0px"
	 viewBox="0 0 891 439" style="enable-background:new 0 0 891 439;" xml:space="preserve">
<style type="text/css">
	.st0{fill:#6C63FF;}
	.st1{fill:#1D1D1E;}
</style>
<g>
	<g>
		<path class="st1" d="M121.37,131.95c0.26,0.83,0.26,1.07,0.35,1.1c10.69,4.24,14.42,13.35,16.59,23.47
			c2.7,12.61,0.67,24.73-6.21,35.44c-5.45,8.48-14.33,12.92-24.47,13.41c-11.33,0.55-22.71,0.16-34.06,0.29
			c-2.76,0.03-3.86-0.92-3.75-3.72c0.17-4.4,0.15-8.82,0.01-13.22c-0.09-2.77,1.05-3.83,3.78-3.78c6.29,0.1,12.58,0.15,18.87,0.04
			c3.36-0.06,6.75-0.25,10.05-0.81c10.19-1.74,14.23-5.65,15.38-15.69c0.47-4.13,0.15-8.54-0.8-12.59
			c-1.97-8.34-7.38-12.11-16.91-12.35c-10.24-0.26-8.76-0.86-8.84,8.17c-0.07,7.75-0.16,15.51,0.05,23.26
			c0.09,3.29-1.12,4.19-4.26,4.08c-5.5-0.2-11.02-0.06-17.04-0.06c-0.09-1.89-0.24-3.5-0.24-5.1c-0.01-34.21,0.05-68.42-0.1-102.63
			c-0.02-3.94,0.9-5.53,5.08-5.15c3.96,0.36,7.99,0.31,11.96,0.03c3.72-0.26,4.66,1.15,4.62,4.7c-0.18,15.51,0.08,31.02-0.18,46.52
			c-0.08,4.63,1.81,6.26,5.96,5.53c4.6-0.8,9.74-1.03,13.52-3.33c5.75-3.51,6.51-10.06,5.8-16.32c-1.25-10.93-4.6-14.34-15.71-16.2
			c-2.49-0.42-3.46-1.22-3.39-3.71c0.14-4.86-0.1-9.74,0.2-14.59c0.07-1.1,1.85-3.11,2.59-3c8.85,1.32,17.34,3.66,24.48,9.47
			c11.11,9.04,12.94,21.13,11.55,34.23C135.19,119.36,131.13,127.54,121.37,131.95"/>
		<path class="st1" d="M474.66,205.52c2.81-16.24,5.54-31.75,8.17-47.28c2.79-16.44,5.64-32.88,8.12-49.37
			c0.6-3.97,1.87-5.48,6-5.14c4.54,0.37,9.14,0.09,14.5,0.09c-2.45,16.68-4.85,33.01-7.31,49.75h17.18
			c-2.86-18.57-5.7-37.01-8.59-55.79c-5.18,0-10.51-0.07-15.84,0.03c-2.61,0.05-3.73-0.95-3.26-3.54c1.43-7.9,2.92-15.8,4.28-23.71
			c0.54-3.11,2.14-4.29,5.36-4.2c6.59,0.19,13.2,0.2,19.79,0c3.26-0.1,4.59,1.05,5.09,4.26c4.53,28.9,9.16,57.77,13.85,86.65
			c0.84,5.17,2.08,10.27,3.25,15.98c-2.46,0.16-3.94,0.35-5.41,0.35c-11.51,0.01-23.01,0.09-34.52-0.12
			c-2.84-0.05-4.24,0.62-4.69,3.49c-1.19,7.48-2.64,14.91-3.84,22.39c-1,6.21-0.91,6.21-7.44,6.18
			C484.61,205.51,479.88,205.52,474.66,205.52"/>
		<path class="st1" d="M237.18,369.23c-3.58,5.88-6.33,11.29-12.12,14.21c-5.01,2.53-9.94,5.31-15.13,7.41
			c-5.89,2.39-11.96,1.74-17.98-0.15c-17.68-5.53-27.55-17.3-28.07-35.69c-0.74-26.57-0.93-53.17-0.77-79.75
			c0.06-10.76,1.69-21.28,8.72-30.53c3.81-5.02,8.62-7.88,14.4-11.31c0,22.61,0,44.56,0,66.52c0,17.17-0.04,34.35,0.01,51.52
			c0.03,11.21,5.56,16.83,16.87,17.03c9.51,0.17,19.02,0.05,28.53,0.12C233.24,368.61,234.82,368.95,237.18,369.23"/>
		<path class="st1" d="M629.19,369.09c-6.48,12.46-16.06,20.14-29.64,22.61c-17.89,3.26-37.37-9.67-40.63-27.41
			c-1.5-8.16-2.4-16.53-2.54-24.82c-0.35-21.28-0.29-42.57-0.04-63.86c0.14-12.18,2.33-23.97,11.13-33.34
			c2.84-3.02,6.38-5.39,9.6-8.06c0.41,0.22,0.82,0.43,1.24,0.65c0.11,2.34,0.31,4.67,0.31,7.01c-0.09,29.64-0.25,59.28-0.31,88.92
			c-0.02,6.99,0.16,13.99,0.41,20.97c0.39,10.84,6.11,16.49,16.99,16.7c10.12,0.19,20.25,0.19,30.38,0.3
			C626.95,368.76,627.82,368.94,629.19,369.09"/>
		<path class="st1" d="M647.67,231.62c7.56,0,14.74-0.13,21.91,0.18c0.81,0.04,2.17,2.53,2.18,3.89c0.1,21.89,0.01,43.79-0.02,65.68
			c-0.04,28.13-0.14,56.26-0.05,84.38c0.01,3.78-1.17,5.22-5.02,5.03c-4.9-0.24-9.83-0.3-14.72,0.02c-3.88,0.25-4.6-1.39-4.55-4.8
			c0.25-19.15,0.44-38.31,0.42-57.47c-0.04-31.17-0.26-62.33-0.39-93.5C647.42,234.15,647.55,233.25,647.67,231.62"/>
		<path class="st1" d="M193.3,255.4c0-7.79-0.13-14.89,0.15-21.99c0.04-0.99,2.05-2.71,3.16-2.73c14.62-0.15,27.38,3.22,35.89,16.73
			c3.93,6.24,6.15,12.7,6.22,19.64c0.28,30.4,0.12,60.81,0.11,91.22c0,0.88-0.21,1.76-0.36,2.92h-25.13
			c0.37-3.24,1.03-6.33,1.04-9.42c0.09-26.77,0.19-53.54-0.04-80.3c-0.04-4.08-0.83-8.71-2.89-12.11
			C207.35,252.68,200.78,251.88,193.3,255.4"/>
		<path class="st1" d="M358.24,388.73c-18.26-8.23-22.69-23.87-22.91-40.91c-0.49-37.26-0.12-74.53-0.22-111.8
			c-0.01-3.29,0.81-4.72,4.34-4.56c5.21,0.24,10.44,0.21,15.66,0.08c2.9-0.07,3.63,1.15,3.62,3.82
			c-0.2,46.24-0.34,92.48-0.48,138.72C358.23,378.89,358.24,383.7,358.24,388.73"/>
		<path class="st1" d="M585.92,254.84c0-7.4-0.13-14.47,0.16-21.53c0.04-0.94,2.22-2.55,3.41-2.56
			c20.69-0.15,30.33,5.26,38.81,22.98c3.13,6.53,3.5,14.78,3.58,22.25c0.28,26.88-0.13,53.77-0.18,80.66
			c-0.01,3.54-1.01,5.21-5,4.96c-5.5-0.34-11.04-0.18-16.56-0.05c-2.67,0.06-3.42-0.95-3.27-3.52c0.45-8.01,0.9-16.04,0.94-24.07
			c0.13-21.27,0.04-42.54,0.04-63.81c0-4.67-0.81-8.84-4.64-12.31c-4.23-3.82-8.53-5.73-14.13-3.55
			C588.29,254.6,587.36,254.6,585.92,254.84"/>
		<path class="st1" d="M797.07,364.3c0.46-1.5,0.65-2.68,1.16-3.72c3.71-7.54,1.52-14.42-2.18-21.22
			c-5.87-10.79-16.2-17.31-24.79-25.48c-9.08-8.64-17.06-18-21.21-29.93c-4.89-14.06-2.96-27.5,4.93-40.12
			c3.58-5.72,9.11-8.76,15.89-11.1c0.11,1.87,0.28,3.47,0.29,5.06c0.03,8.21,0.38,16.44-0.05,24.63
			c-0.72,13.69,4.91,24.42,14.71,33.44c4.05,3.72,8.18,7.35,12.28,11.01c10.54,9.4,18.69,20.39,23.77,33.63
			c2.76,7.19,1.83,14.35,0.83,21.56c-0.12,0.86-1.77,2.12-2.74,2.15C812.49,364.38,805,364.3,797.07,364.3"/>
		<path class="st1" d="M411.93,293.95c0,18.39,0.01,36.77-0.02,55.16c0,1.96-0.18,3.94-0.51,5.86c-1.14,6.55-1.18,6.54-7.67,6.55
			c-4.75,0-9.52-0.15-14.26,0.05c-3.18,0.13-4-1.1-3.61-4.05c0.49-3.74,0.86-7.53,0.87-11.3c0.06-36.47,0.11-72.93-0.06-109.4
			c-0.02-4.19,1.13-5.68,5.37-5.39c4.73,0.32,9.52,0.38,14.25,0.05c4.34-0.3,5.82,0.96,5.76,5.5
			C411.79,255.96,411.94,274.96,411.93,293.95"/>
		<path class="st1" d="M96.82,232.59c0,6.48-0.1,12.37,0.03,18.26c0.14,6.67,0.14,13.37,0.79,20.01c0.81,8.2,5.13,14.91,10.81,20.66
			c8.26,8.37,17.29,16.05,25,24.88c11.17,12.78,17.98,27.52,15.89,45.07c-0.13,1.06-1.24,2.85-1.94,2.87
			c-7.62,0.21-15.25,0.13-22.67,0.13c0.31-4.67,0.88-8.69,0.78-12.68c-0.26-10.32-6.17-17.84-13.11-24.76
			c-9.18-9.17-18.61-18.1-27.5-27.53c-11.82-12.54-15.8-36.71-5.89-53.21C83.02,239.62,88.65,235.43,96.82,232.59"/>
		<path class="st1" d="M256.41,231.56c6.78,0,13.51-0.09,20.22,0.11c0.9,0.03,1.97,1.42,2.55,2.41c0.4,0.69,0.1,1.78,0.1,2.69
			c0,39.24,0,78.49-0.01,117.73c0,6.32-0.02,6.3-6.4,6.22c-4.45-0.05-8.91-0.12-13.36-0.04c-2.46,0.04-3.64-0.74-3.64-3.39
			c0.08-41.52,0.09-83.04,0.13-124.56C256,232.59,256.09,232.45,256.41,231.56"/>
		<path class="st1" d="M540.7,259.91V390.7c-7.03,0-13.87,0.06-20.7-0.03c-3.15-0.04-2.48-2.55-2.45-4.39
			c0.16-12.75,0.59-25.51,0.56-38.26c-0.05-27.63-0.21-55.27-0.6-82.9c-0.06-4.42,1.39-5.49,5.49-5.29
			C528.77,260.13,534.56,259.91,540.7,259.91"/>
		<path class="st1" d="M453.08,390.73c0-2.25,0-3.75,0-5.25c0-39.05,0.06-78.09-0.09-117.14c-0.02-4.31,1.13-6.12,5.64-5.81
			c4.27,0.3,8.59,0.23,12.87,0.02c3.68-0.18,5.09,0.99,5.07,4.89c-0.19,37.68-0.14,75.36-0.3,113.04
			c-0.05,11.23,2.11,10.23-10.66,10.25C461.66,390.74,457.7,390.73,453.08,390.73"/>
		<path class="st1" d="M342.78,66.67c0,18.23,0.12,36.01-0.09,53.78c-0.05,4.09,0.85,5.7,5.31,5.4c6.27-0.42,12.59,0.01,18.88-0.21
			c3.32-0.12,4.75,0.81,4.58,4.34c-0.25,5.14-0.06,10.29-0.06,16.15c-7.83,0-15.29,0-22.75,0c-6.03,0-6.21-0.01-6.29,6
			c-0.09,6.84,0.04,13.68,0.34,20.51c0.26,5.83-0.03,6.34-5.72,6.35c-3.53,0.01-7.09-0.24-10.59,0.07c-4.09,0.36-5.22-1.15-5.2-5.15
			c0.17-30.12,0.11-60.24,0.12-90.35c0-4.56,0.09-9.13-0.07-13.69c-0.11-3.03,0.78-4.61,4.16-4.32
			C330.72,65.98,336.05,66.24,342.78,66.67"/>
		<path class="st1" d="M681.89,256.08c0.92,2.66,1.96,5.29,2.75,7.99c6.13,20.96,12.21,41.93,18.31,62.89
			c0.04,0.15,0.05,0.3,0.09,0.45c3.29,10.94,3.29,10.94,14.8,10.94c3.53,0,7.06,0.09,10.58-0.02c2.39-0.08,3.26,0.9,3.23,3.23
			c-0.22,15.19-0.41,30.37-0.52,45.56c-0.02,2.73-1.11,3.73-3.87,3.66c-5.82-0.15-11.66-0.24-17.48,0.03
			c-3.47,0.16-4.97-1.41-5.9-4.38c-3.97-12.74-7.99-25.46-12.07-38.16c-3.8-11.84-7.72-23.64-11.56-35.46
			c-0.42-1.3-1.04-2.63-1.05-3.95c-0.1-16.39-0.13-32.79-0.06-49.18c0-1.21,0.85-2.41,1.31-3.62
			C680.93,256.06,681.41,256.07,681.89,256.08"/>
		<path class="st1" d="M690.05,205.53c3.24-18.94,6.44-36.98,9.38-55.06c4.29-26.35,8.42-52.72,12.52-79.1
			c0.51-3.3,1.44-5.34,5.43-5.01c4.12,0.34,8.29,0.21,12.43,0.04c3.1-0.13,4.14,0.91,3.54,4.01c-3.51,18.17-6.99,36.34-10.33,54.54
			c-4.65,25.36-9.24,50.74-13.65,76.14c-0.62,3.58-1.91,4.84-5.6,4.53C699.37,205.25,694.93,205.53,690.05,205.53"/>
		<path class="st1" d="M596.84,205.55c2.08-10.28,4.24-19.56,5.81-28.93c4.02-24.06,7.81-48.16,11.63-72.26
			c1.76-11.07,3.47-22.15,5.04-33.26c0.5-3.52,1.99-4.99,5.7-4.74c4.28,0.3,8.59,0.19,12.88,0.05c2.98-0.09,3.59,0.88,3.02,3.81
			c-4.97,25.44-9.91,50.88-14.59,76.37c-3.25,17.74-6.23,35.54-8.96,53.37c-0.69,4.51-2.13,6.25-6.88,5.69
			C606.16,205.15,601.71,205.55,596.84,205.55"/>
		<path class="st1" d="M441.41,182.63c-0.17-1.26-0.44-1.9-0.29-2.43c3.87-13.79-3.6-23.17-12.49-32.11
			c-7.94-7.99-15.79-16.07-23.51-24.26c-11.84-12.56-11.99-41.69,3.52-52.73c2.41-1.72,5.11-3.04,8.35-4.94
			c0.22,2.17,0.42,3.3,0.43,4.43c0.04,5.78,0.51,11.61-0.07,17.33c-1.73,17.05,5.73,29.83,18.69,39.81
			c8.7,6.7,14.79,15.4,20.78,24.18c5.56,8.14,6.42,17.54,5.56,27.14c-0.22,2.5-1.25,3.75-4.09,3.64
			C452.8,182.49,447.3,182.63,441.41,182.63"/>
		<path class="st1" d="M286.64,149.64c0,17.02-0.1,34.05,0.08,51.07c0.04,3.83-1.21,5.14-5,4.93c-4.28-0.24-8.59-0.12-12.88,0.03
			c-2.8,0.1-3.72-0.98-3.72-3.74c0.07-35.11,0.07-70.22-0.01-105.33c-0.01-3.16,1.34-3.91,4.15-3.81c3.98,0.14,8,0.31,11.96,0
			c4.2-0.34,5.59,1.03,5.53,5.33C286.51,115.28,286.65,132.46,286.64,149.64"/>
		<path class="st1" d="M731.74,231.5c0,32.66-0.03,64.71,0.05,96.76c0.01,2.58-0.74,3.52-3.38,3.43c-5.67-0.2-11.35-0.28-17.02-0.17
			c-2.97,0.06-4.09-1.02-4.09-3.98c0.07-30.85,0.07-61.7,0.02-92.54c0-2.52,0.85-3.57,3.44-3.53
			C717.63,231.56,724.5,231.5,731.74,231.5"/>
		<path class="st1" d="M221.07,91.4c-2.64,7.28-4.75,13.23-6.95,19.15c-3.11,8.39-6.06,16.86-9.51,25.12
			c-2.94,7.04-3.87,14.2-3.73,21.75c0.27,14.28-0.09,28.57,0.2,42.84c0.09,4.56-1.39,5.84-5.77,5.38c-3.64-0.38-7.35-0.1-11.03,0.04
			c-2.59,0.1-3.95-0.57-3.93-3.53c0.1-15.8-0.44-31.63,0.29-47.4c0.3-6.48,3.17-12.87,5.01-19.26c4.04-13.97,8.13-27.92,12.36-41.83
			c0.29-0.95,1.84-2.13,2.84-2.17C207.23,91.3,213.61,91.4,221.07,91.4"/>
		<path class="st1" d="M814.99,91.81c-1.74,4.73-3.17,8.5-4.53,12.31c-4.73,13.3-9.53,26.57-14.05,39.94
			c-0.95,2.81-1.16,5.96-1.19,8.96c-0.11,15.81-0.17,31.61,0.03,47.42c0.05,4.01-1.24,5.47-5.27,5.2c-3.97-0.27-7.97-0.1-11.96,0.01
			c-2.5,0.07-3.58-0.82-3.56-3.44c0.11-16.26-0.2-32.53,0.34-48.78c0.16-5,2.4-9.96,3.91-14.87c4.36-14.21,8.91-28.36,13.17-42.6
			c0.83-2.77,1.96-4.22,4.96-4.17C802.59,91.88,808.33,91.81,814.99,91.81"/>
		<path class="st1" d="M566.67,91.9c6.85,0,12.64-0.2,18.4,0.17c1.12,0.07,2.75,2.24,3.02,3.66c1.95,10.26,3.61,20.58,5.35,30.88
			c0.93,5.53,1.45,11.15,2.84,16.56c2.94,11.41,1,22.55-1.05,33.75c-1.63,8.94-3.03,17.91-4.58,26.86
			c-0.15,0.85-0.65,1.63-1.68,2.52C579.76,168.71,575.54,130.21,566.67,91.9"/>
		<path class="st1" d="M680.03,206.12c-6.87-37.86-13.73-75.73-20.71-114.19c6.41,0,12.35-0.16,18.26,0.16
			c0.97,0.05,2.38,2.18,2.63,3.52c1.92,10.27,3.63,20.58,5.35,30.89c1.29,7.77,2.16,15.63,3.84,23.31c1.94,8.84-0.66,17.15-2,25.64
			c-1.48,9.42-3.06,18.84-4.65,28.24c-0.14,0.82-0.73,1.57-1.11,2.35C681.1,206.07,680.56,206.1,680.03,206.12"/>
		<path class="st1" d="M427.3,254.99c0-6.88,0.08-13.7-0.03-20.51c-0.06-3.45,2.32-2.97,4.39-2.98c18.25-0.02,36.49-0.01,54.74,0.01
			c3.99,0,7.98,0.16,11.96,0.04c2.85-0.09,4.21,0.71,4.05,3.85c-0.28,5.31-0.25,10.63-0.23,15.95c0.01,2.7-0.77,4.33-3.89,4.32
			c-23.15-0.07-46.31-0.08-69.46-0.12C428.55,255.55,428.27,255.35,427.3,254.99"/>
		<path class="st1" d="M145.07,371.45c-1.26,12.08-22.05,22.51-35.27,21.01c-22.28-2.54-36.41-16.11-39.48-45.09
			c5.18,0,10.3,0.1,15.42-0.02c7.19-0.17,7.17-0.23,9.24,6.47c0.54,1.74,1.16,3.45,1.83,5.14c3.79,9.57,7.58,12.15,18.04,12.23
			c8.59,0.06,17.18,0.04,25.78,0.08C142.1,371.27,143.58,371.38,145.07,371.45"/>
		<path class="st1" d="M820.64,371.2c-6.42,11.13-15.3,17.66-27.05,20.47c-12.17,2.91-23.01-1-32.51-7.79
			c-8.97-6.41-12.47-16.65-15.02-26.98c-0.71-2.88-0.98-5.88-1.48-9c7.11-0.39,13.66-0.84,20.21-1c0.89-0.02,2.24,1.23,2.62,2.19
			c0.66,1.66,0.61,3.57,1.07,5.33c3.34,12.8,8.43,16.74,21.66,16.78C800.07,371.23,809.99,371.2,820.64,371.2"/>
		<path class="st1" d="M255.9,367.72h65.7c0,6.94,0.14,13.58-0.15,20.2c-0.04,0.98-2.09,2.67-3.22,2.68
			c-19.79,0.16-39.58,0.16-59.36-0.02c-1-0.01-2.79-1.87-2.83-2.92C255.77,381.16,255.9,374.64,255.9,367.72"/>
		<path class="st1" d="M308.74,67.18c0,5.52-0.07,10.98,0.03,16.44c0.05,2.64-1.29,3.44-3.68,3.44
			c-20.08-0.03-40.16,0.02-60.24-0.16c-0.95-0.01-2.64-1.89-2.7-2.98c-0.28-4.69-0.28-9.43,0.1-14.1c0.1-1.2,1.97-3.23,3.04-3.24
			c20.69-0.16,41.38-0.07,62.07-0.02C307.63,66.55,307.9,66.79,308.74,67.18"/>
		<path class="st1" d="M351.92,185.02c8.59,0,17.17,0.13,25.76-0.06c3.51-0.08,5.08,0.9,4.84,4.62c-0.27,4.08-0.18,8.2-0.03,12.3
			c0.1,2.82-1.15,3.74-3.83,3.74c-17.94-0.02-35.87-0.02-53.81,0.09c-2.87,0.02-3.76-1.11-3.66-3.8c0.15-4.4,0.25-8.82,0-13.21
			c-0.18-3.19,1.23-3.84,4.06-3.81c8.89,0.11,17.78,0.04,26.68,0.04C351.92,184.95,351.92,184.98,351.92,185.02"/>
		<path class="st1" d="M459.61,188.66c-3.78,12.65-21.53,20.75-37.06,17.69c-15.06-2.97-29.59-22.17-28.04-37.33
			c6.26-0.6,12.58-1.2,18.34-1.75c1.93,4.85,3.36,9.62,5.66,13.94c2.86,5.37,7.59,7.81,14.03,7.54
			C441.38,188.39,450.25,188.66,459.61,188.66"/>
		<path class="st1" d="M746.12,66.05c7.71,0,14.54-0.12,21.36,0.12c1.06,0.04,2.67,1.55,2.99,2.67c3.42,11.94,6.64,23.93,9.88,35.91
			c0.15,0.57,0.22,1.25,0.07,1.81c-2.85,10.14-5.75,20.27-9.54,30.36C762.69,113.49,754.51,90.06,746.12,66.05"/>
		<path class="st1" d="M176.35,135.61c-7.96-22.8-15.92-45.6-24.2-69.32c7.64,0,14.28-0.08,20.93,0.11c0.74,0.02,1.8,1.48,2.1,2.46
			c3.56,11.61,7.02,23.24,10.47,34.88c0.34,1.14,0.77,2.49,0.47,3.55c-2.63,9.42-5.42,18.8-8.16,28.19
			C177.42,135.52,176.88,135.57,176.35,135.61"/>
		<path class="st1" d="M778.32,251.31c0-5.79,0.04-11.71-0.02-17.62c-0.02-2.32,0.54-4,3.3-3.7c5.02,0.55,10.15,0.7,15.02,1.88
			c12.95,3.14,24.69,17.82,25.16,31.17c0.04,1.14-1.39,3.06-2.51,3.39c-4.83,1.42-9.82,2.3-14.71,3.53
			c-3.05,0.77-4.63-0.15-5.13-3.3c-0.91-5.77-2.88-11.26-8.81-13.47C786.91,251.8,782.65,251.91,778.32,251.31"/>
		<path class="st1" d="M105.34,251.94c0-6.65-0.13-12.71,0.12-18.75c0.05-1.11,1.7-3.09,2.59-3.08c11.32,0.16,21.77,2.65,30,11.23
			c6.63,6.92,9.35,15.39,11.08,24.76c-6.66,1.38-13.16,2.91-19.74,3.91c-1.23,0.19-3.27-1.48-4.09-2.8
			c-0.99-1.6-0.93-3.79-1.56-5.65c-2.62-7.79-7.44-10.71-15.65-9.63C107.23,252.04,106.32,251.94,105.34,251.94"/>
		<path class="st1" d="M423.65,83.67c0-5.35-0.21-10.64,0.18-15.88c0.08-1.04,2.41-2.7,3.76-2.75c16.48-0.65,28.69,8.03,33.44,23.48
			c1.98,6.44,1.37,7.39-5.07,8.61c-3.45,0.65-6.85,1.55-10.28,2.29c-2.08,0.45-3.64,0.12-3.81-2.48c-0.07-1.04-0.53-2.05-0.78-3.08
			c-2.15-8.73-5.99-11.22-15.2-9.91C425.31,84.02,424.7,83.81,423.65,83.67"/>
		<path class="st1" d="M408.36,370.22c-6.62,11.3-16.35,18.64-29.43,21.49c-12.82,2.79-13.35,2.29-13.37-10.52
			c-0.01-4.51,0-9.03,0-12.91h42.24L408.36,370.22z"/>
		<path class="st1" d="M382.43,66.24c0,6.47,0.19,12.06-0.16,17.63c-0.07,1.12-2.11,3.02-3.28,3.04c-8.86,0.19-17.74,0.1-26.6-0.21
			c-1.06-0.04-2.92-1.82-2.95-2.83c-0.16-5.14,0.08-10.3,0.43-15.43c0.05-0.78,1.43-2.1,2.21-2.11
			C361.99,66.19,371.9,66.24,382.43,66.24"/>
		<path class="st1" d="M550.64,205.69c-6.78,0-13.29,0.08-19.79-0.11c-0.73-0.02-1.89-1.49-2.05-2.42
			c-1.11-6.25-1.93-12.54-2.99-18.79c-0.58-3.41,0.17-5.12,4.15-4.83c4.41,0.31,8.88-0.15,13.29,0.21c1.35,0.11,3.46,1.64,3.69,2.81
			C548.36,189.92,549.36,197.39,550.64,205.69"/>
		<path class="st1" d="M517.51,231.55c7.27,0,13.99-0.11,20.69,0.13c0.93,0.03,2.52,1.76,2.57,2.76c0.26,5.16,0.31,10.35-0.05,15.49
			c-0.08,1.11-2.11,2.89-3.33,2.98c-5.5,0.38-11.05,0.44-16.55,0.17c-1.16-0.06-3.12-1.93-3.18-3.04
			C517.34,244.14,517.51,238.21,517.51,231.55"/>
		<path class="st1" d="M229.26,66.52c-1.92,5.73-3.6,10.88-5.42,15.97c-0.25,0.69-1.25,1.56-1.92,1.58
			c-6.65,0.12-13.31,0.07-20.43,0.07c1.67-5.76,3.26-11.53,5.09-17.23c0.21-0.67,1.76-1.33,2.67-1.3
			C215.63,65.8,222.01,66.17,229.26,66.52"/>
		<path class="st1" d="M795.27,84.3c1.79-5.61,3.39-10.95,5.25-16.2c0.31-0.88,1.73-1.92,2.67-1.94c6.67-0.17,13.35-0.09,20.81-0.09
			c-2.22,5.94-3.96,10.9-5.99,15.74c-0.44,1.06-1.93,2.34-2.97,2.38C808.67,84.41,802.29,84.3,795.27,84.3"/>
		<path class="st1" d="M679.07,84.18c-6.6,0-12.39,0.15-18.17-0.13c-1.15-0.05-2.87-1.53-3.22-2.69c-1.09-3.6-1.47-7.41-2.48-11.05
			c-0.93-3.32,0.47-4,3.41-3.93c4.59,0.12,9.18,0.14,13.77-0.01c2.61-0.09,4.01,0.81,4.39,3.41
			C677.47,74.53,678.27,79.25,679.07,84.18"/>
		<path class="st1" d="M586.75,84.2c-6.49,0-12.14,0.15-17.77-0.12c-1.22-0.06-3.09-1.38-3.42-2.48c-1.18-3.89-1.8-7.95-2.68-11.93
			c-0.54-2.45,0.51-3.31,2.89-3.27c4.74,0.07,9.49-0.19,14.2,0.16c1.39,0.1,3.5,1.6,3.83,2.84C585.1,74.17,585.79,79.09,586.75,84.2
			"/>
	</g>
</g>
</svg>
